# xmcd CD database file
#
# Track frame offsets:
#	150
#	27000
#	46470
#	72717
#	87857
#	103371
#	130895
#	142713
#	159130
#	184171
#	195823
#	214341
#	230092
#	244439
#	255401
#	280331
#	301621
#	318780
#	331506
#
# Disc length: 4647 seconds
#
# Revision: 1
# Processed by: cddbd v1.5.2PL0 Copyright (c) Steve Scherf et al.
# Submitted via: CDex 1.51
#
DISCID=02122513
DTITLE=modao - modao universitario
DYEAR=1900
DGENRE=Country
TTITLE0=mod uni01
TTITLE1=mod uni 02
TTITLE2=mod uni03
TTITLE3=mod uni 04
TTITLE4=mod uni05
TTITLE5=mod uni06
TTITLE6=mod uni07
TTITLE7=mod uni08
TTITLE8=mod uni 09
TTITLE9=mod uni  10
TTITLE10=mod uni 11
TTITLE11=mod uni 12
TTITLE12=mod uni13
TTITLE13=mod uni 14
TTITLE14=mod uni 15
TTITLE15=mod uni 16
TTITLE16=mod uni 17
TTITLE17=mod uni 18
TTITLE18=mod uni19
EXTD=
EXTT0=
EXTT1=
EXTT2=
EXTT3=
EXTT4=
EXTT5=
EXTT6=
EXTT7=
EXTT8=
EXTT9=
EXTT10=
EXTT11=
EXTT12=
EXTT13=
EXTT14=
EXTT15=
EXTT16=
EXTT17=
EXTT18=
PLAYORDER=
